<?xml version="1.0"?>
<svg width="36.3" height="36.3" xmlns="http://www.w3.org/2000/svg" xmlns:svg="http://www.w3.org/2000/svg">
 <g>
  <title>Layer 1</title>
  <path id="svg_1" d="m36.126709,31.126709c0,2.8 -2.2,5 -5,5l-26,0c-2.8,0 -5,-2.2 -5,-5l0,-26c0,-2.8 2.2,-5 5,-5l26,0c2.8,0 5,2.2 5,5l0,26z" fill="#FF9800"/>
  <path id="svg_2" d="m21.026709,24.526709c1.5,-0.3 2.9,-0.9 4.1,-1.7c1,-0.6 1.3,-1.9 0.7,-2.9c-0.6,-1 -1.9,-1.3 -2.9,-0.7c-2.9,1.8 -6.7,1.8 -9.6,0c-1,-0.6 -2.3,-0.3 -2.9,0.7c-0.6,1 -0.3,2.3 0.7,2.9c1.3,0.8 2.7,1.4 4.1,1.7l-4,4c-0.8,0.8 -0.8,2.1 0,3c0.4,0.4 0.9,0.6 1.5,0.6c0.5,0 1.1,-0.2 1.5,-0.6l3.9,-3.9l3.9,3.9c0.8,0.8 2.1,0.8 3,0c0.8,-0.8 0.8,-2.1 0,-3c0,0 -4,-4 -4,-4zm-2.9,-20.4c-3.9,0 -7,3.1 -7,7c0,3.9 3.1,7 7,7c3.9,0 7,-3.1 7,-7c0,-3.9 -3.1,-7 -7,-7zm0,10c-1.7,0 -3,-1.3 -3,-3c0,-1.7 1.3,-3 3,-3c1.7,0 3,1.3 3,3c0,1.7 -1.3,3 -3,3z" fill="#FFFFFF"/>
 </g>
</svg>