<?xml version="1.0" encoding="utf-8"?>
<!-- Generator: Adobe Illustrator 22.0.0, SVG Export Plug-In . SVG Version: 6.00 Build 0)  -->
<svg version="1.1" id="Слой_1" xmlns="http://www.w3.org/2000/svg" xmlns:xlink="http://www.w3.org/1999/xlink" x="0px" y="0px"
	 viewBox="0 0 8.6 9.4" style="enable-background:new 0 0 8.6 9.4;" xml:space="preserve">
<style type="text/css">
	.st0{fill:#6FBA34;}
</style>
<title>Безымянный-1</title>
<path class="st0" d="M7.7,0.8c0.6,0.6,0.9,1.3,0.8,2.1c0,0.8-0.3,1.6-0.8,2.1C7.1,5.6,6.4,5.9,5.5,5.9H3.3v0.8h3.4
	c0.1,0,0.1,0,0.1,0.1c0,0,0.1,0.1,0.1,0.2v0.9c0,0.1,0,0.1-0.1,0.2c0,0-0.1,0.1-0.1,0.1H3.3v1.3c0,0.1,0,0.1-0.1,0.2
	c0,0-0.1,0.1-0.1,0.1H2c-0.1,0-0.1,0-0.1-0.1c0,0-0.1-0.1-0.1-0.2V7.9H0.2C0.1,7.9,0,7.8,0,7.7c0,0,0,0,0,0V6.9c0-0.1,0-0.1,0.1-0.2
	c0,0,0.1-0.1,0.2-0.1h1.5V5.9H0.2c-0.1,0-0.1,0-0.2-0.1C0,5.8,0,5.7,0,5.6v-1c0-0.1,0-0.1,0.1-0.1c0,0,0.1-0.1,0.2-0.1h1.5V0.2
	C1.7,0.1,1.8,0,2,0h0h3.6C6.4,0,7.1,0.3,7.7,0.8z M6.6,4c0.6-0.6,0.6-1.6,0-2.2C6.2,1.6,5.8,1.4,5.4,1.4H3.3v3h2.1
	C5.8,4.4,6.2,4.3,6.6,4z"/>
</svg>
