<svg id="Слой_1" data-name="Слой 1" xmlns="http://www.w3.org/2000/svg" viewBox="0 0 8.57 9.43"><title>Безымянный-1</title><path d="M250.45,174.66a2.82,2.82,0,0,1,.84,2.11,2.79,2.79,0,0,1-.84,2.11,3,3,0,0,1-2.19.82H246v.79h3.39a.2.2,0,0,1,.15.06.21.21,0,0,1,.06.16v.85a.23.23,0,0,1-.06.16.2.2,0,0,1-.15.06H246v1.28a.23.23,0,0,1-.06.16.2.2,0,0,1-.15.06h-1.12a.2.2,0,0,1-.15-.06.23.23,0,0,1-.06-.16v-1.28h-1.5a.21.21,0,0,1-.22-.22v-.85a.21.21,0,0,1,.06-.16.23.23,0,0,1,.16-.06h1.5v-.79h-1.5a.23.23,0,0,1-.16-.06.2.2,0,0,1-.06-.15v-1a.2.2,0,0,1,.06-.15.24.24,0,0,1,.16-.07h1.5v-4.21a.21.21,0,0,1,.21-.21h3.61A3.06,3.06,0,0,1,250.45,174.66Zm-1.18,3.2a1.56,1.56,0,0,0,0-2.17,1.57,1.57,0,0,0-1.14-.42H246v3h2.15A1.57,1.57,0,0,0,249.27,177.86Z" transform="translate(-242.72 -173.85)"/></svg>